<svg xmlns="http://www.w3.org/2000/svg" width="900" height="1100" viewBox="0 0 900 1100" role="img" aria-label="Charlotte placeholder">
  <defs>
    <linearGradient id="gfounder" x1="0" y1="0" x2="1" y2="1">
      <stop offset="0" stop-color="#141414"/>
      <stop offset="1" stop-color="#0f0f0f"/>
    </linearGradient>
    <pattern id="pfounder" width="46" height="46" patternUnits="userSpaceOnUse" patternTransform="rotate(45)">
      <rect width="46" height="46" fill="none"/>
      <line x1="0" y1="0" x2="0" y2="46" stroke="#ffffff" stroke-opacity="0.05" stroke-width="14"/>
    </pattern>
  </defs>
  <rect width="900" height="1100" fill="url(#gfounder)"/>
  <rect width="900" height="1100" fill="url(#pfounder)"/>
  <g transform="translate(402, 494.91377921031426) scale(0.038678485092667206) translate(-259, -748)" fill="#ffffff" fill-opacity="0.55"><path d="M259 748 L453 748 L453 1963.9 L1203.5 748 L1444 748 L1444 2252 L1249 2252 L1249 1038.5 L488 2252 L259 2252 Z"/><path d="M2741 748 L2547 748 L2547 1963.9 L1796.5 748 L1556 748 L1556 2252 L1751 2252 L1751 1038.5 L2512 2252 L2741 2252 Z"/></g>
  <text x="450" y="584" text-anchor="middle" font-family="Arial, Helvetica, sans-serif" font-size="20" font-weight="700" letter-spacing="2" fill="#f5f2ea">CHARLOTTE</text>
  <text x="450" y="608" text-anchor="middle" font-family="Arial, Helvetica, sans-serif" font-size="12" letter-spacing="3" fill="#8a8a8a">FOUNDER PORTRAIT PLACEHOLDER</text>
</svg>
